<svg xmlns="http://www.w3.org/2000/svg" xmlns:xlink="http://www.w3.org/1999/xlink" width="674.3880004882812" height="661.7150268554688" viewBox="0 0 674.3880004882812 661.7150268554688" fill="none">
<path d="M330.786 244.581L81.0924 244.581C62.3956 244.581 47.1667 229.682 47.1667 211.226C47.1667 192.77 62.3202 177.872 81.0924 177.872L331.238 177.872C362.224 177.872 387.932 153.56 388.233 123.096C388.535 92.336 363.128 67.2089 331.917 67.2089C308.847 67.2089 289.17 80.5507 280.425 99.9704C274.846 112.497 262.256 120.576 248.309 120.205C224.41 119.538 208.502 95.3749 218.077 73.8057C224.485 59.5004 233.683 46.3068 245.368 35.1145C268.664 12.8041 299.423 0.5 331.992 0.5C400.597 0.5 456.386 55.4237 456.16 122.874C455.934 190.324 399.391 244.581 330.786 244.581ZM549.72 161.269C549.72 138.069 573.468 122.059 595.331 130.583C641.244 148.52 673.813 192.622 673.888 244.136C673.888 311.438 618.175 366.213 549.72 366.213L34.4257 366.213C15.6535 366.213 0.5 351.315 0.5 332.859C0.5 314.403 15.6535 299.504 34.4257 299.504L549.645 299.504C580.706 299.504 605.961 274.674 605.961 244.136C605.961 220.862 591.26 200.849 570.528 192.696C557.938 187.73 549.72 175.574 549.72 162.232L549.72 161.269ZM141.556 421.804C463.096 417.134 463.247 417.134 463.699 417.134C531.098 417.134 586.133 470.205 587.867 536.099C589.601 604.142 533.059 661.141 463.85 661.215C431.281 661.215 400.447 648.911 377.151 626.6C365.39 615.408 356.192 602.289 349.86 587.909C340.285 566.34 356.192 542.177 380.091 541.51C393.963 541.139 406.629 549.07 412.132 561.522C420.651 580.794 440.027 594.135 462.795 594.506C492.8 595.025 517.754 572.64 519.865 543.14C522.127 510.898 496.193 483.992 463.925 483.843C455.708 483.917 236.774 487.105 142.611 488.513C137.108 488.587 131.906 488.661 127.156 488.735C108.384 489.032 92.9287 474.282 92.7026 455.826C92.401 437.444 107.404 422.323 126.101 422.026C130.85 421.952 136.052 421.878 141.556 421.804Z" stroke="url(#linear_border_1_4)" stroke-width="1" fill-rule="evenodd" fill="url(#linear_fill_1_4)">
</path>
<defs>
<linearGradient id="linear_fill_1_4" x1="337.1941833496094" y1="661.2149658203125" x2="337.1941833496094" y2="0.5" gradientUnits="userSpaceOnUse">
<stop offset="0" stop-color="#323232"/>
<stop offset="1" stop-color="#3F3F3F"/>
</linearGradient>
<radialGradient id="linear_border_1_4" cx="0" cy="0" r="1" gradientTransform="translate(396.081787109375 327.3490905761719) rotate(-217.23323827368358) scale(703.1174524078403, 245.84526307966448)" gradientUnits="userSpaceOnUse">
<stop offset="0" stop-color="#FFFFFF"/>
<stop offset="1" stop-color="#FFFFFF" stop-opacity="0.1"/>
</radialGradient>
</defs>
</svg>
